Coordinates
version=1
nRows=15
nColumns=46
inDegrees=yes

Units are S.I. units (second, meters, Newtons, ...)
Angles are in degrees.

endheader
time	pelvis_tilt	pelvis_list	pelvis_rotation	pelvis_tx	pelvis_ty	pelvis_tz	bb_angle	bb_tx	bb_ty	bb_tz	hip_flexion_r	hip_adduction_r	hip_rotation_r	knee_angle_r	knee_angle_r_beta	ankle_angle_r	subtalar_angle_r	mtp_angle_r	crank_angle_r	hip_flexion_l	hip_adduction_l	hip_rotation_l	knee_angle_l	knee_angle_l_beta	ankle_angle_l	subtalar_angle_l	mtp_angle_l	crank_angle_l	lumbar_extension	lumbar_bending	lumbar_rotation	arm_flex_r	arm_add_r	arm_rot_r	elbow_flex_r	pro_sup_r	wrist_flex_r	wrist_dev_r	arm_flex_l	arm_add_l	arm_rot_l	elbow_flex_l	pro_sup_l	wrist_flex_l	wrist_dev_l
      7.50000000	    -22.86014000	     -4.70620298	      0.21885656	      0.07203216	      0.98410764	     -0.22945320	      0.00000000	      0.50000000	      0.00000000	      0.25000000	     89.93424302	     -2.64824416	      4.22274288	    116.71351793	      2.03703517	     -1.28094512	     -9.55981699	      0.00000000	      0.00000000	     56.73215441	     -6.36296513	      3.47525417	     36.40020894	      0.63530349	     -2.78563664	     -9.92735820	      0.00000000	      0.00000000	    -42.75721366	      6.95900694	      4.67058021	     89.38988845	     -6.24216728	     40.77956010	     33.91757056	     38.53141110	      0.00000000	      0.00000000	     89.29198827	    -12.74262057	     50.33124325	     34.95924184	     35.47744884	      0.00000000	      0.00000000
      7.50500000	    -22.59597438	     -4.52692680	     -0.33682204	      0.07260394	      0.98446407	     -0.22936825	      0.00000000	      0.50000000	      0.00000000	      0.25000000	     91.67776769	     -2.31338499	      4.52725238	    117.71820009	      2.05457018	     -2.92545019	    -10.07855221	      0.00000000	      0.00000000	     54.69454677	     -6.85477814	      2.46214260	     34.66404259	      0.60500168	     -3.24000932	     -9.38310619	      0.00000000	      0.00000000	    -43.06208440	      6.77305486	      4.99914051	     89.40260878	     -6.18690843	     40.96299139	     34.16699834	     38.49038217	      0.00000000	      0.00000000	     89.32334270	    -12.92259131	     51.14908602	     34.40378512	     35.47791984	      0.00000000	      0.00000000
      7.51000000	    -22.45219952	     -4.60226571	     -0.90362853	      0.07311305	      0.98487023	     -0.22932265	      0.00000000	      0.50000000	      0.00000000	      0.25000000	     93.47017057	     -1.97658802	      4.48869449	    118.49973341	      2.06821051	     -4.37476607	    -10.28136345	      0.00000000	      0.00000000	     52.94680184	     -7.51132004	      1.66697527	     33.20976542	      0.57961975	     -3.45173669	     -8.54453074	      0.00000000	      0.00000000	    -43.28882147	      6.83141516	      5.52526427	     89.41861464	     -6.13571327	     41.16193432	     34.45673747	     38.43684882	      0.00000000	      0.00000000	     89.32054245	    -13.16074974	     51.84433385	     34.02545775	     35.50241953	      0.00000000	      0.00000000
      7.51500000	    -22.40306833	     -4.75303359	     -1.40653116	      0.07349105	      0.98527692	     -0.22931011	      0.00000000	      0.50000000	      0.00000000	      0.25000000	     95.34677175	     -1.70280631	      4.39852080	    119.07831678	      2.07830870	     -5.78209652	    -10.00280749	      0.00000000	      0.00000000	     51.39377576	     -8.12640978	      1.06371209	     31.89477867	      0.55666890	     -3.73790733	     -7.83803444	      0.00000000	      0.00000000	    -43.46053578	      6.98631850	      5.99994458	     89.43093930	     -5.99083746	     41.23672400	     34.68967225	     38.43994839	      0.00000000	      0.00000000	     89.27732444	    -13.40294084	     52.00626876	     33.87319499	     35.50533858	      0.00000000	      0.00000000
      7.52000000	    -22.24320547	     -4.82668073	     -1.92188238	      0.07411868	      0.98616393	     -0.22913056	      0.00000000	      0.50000000	      0.00000000	      0.25000000	     97.04251666	     -1.38473903	      4.28677603	    119.49481542	      2.08557797	     -7.37832211	     -9.97429021	      0.00000000	      0.00000000	     49.72806640	     -8.72266389	      0.27276340	     30.67115173	      0.53531258	     -3.93496196	     -7.02052555	      0.00000000	      0.00000000	    -43.76664473	      7.03452802	      6.44185696	     89.45615612	     -5.86175354	     41.28729439	     34.94596109	     38.44793069	      0.00000000	      0.00000000	     89.24924331	    -13.66357353	     52.16947268	     33.71057779	     35.50596385	      0.00000000	      0.00000000
      7.52500000	    -21.83437108	     -4.64922146	     -2.61058993	      0.07501655	      0.98756756	     -0.22864289	      0.00000000	      0.50000000	      0.00000000	      0.25000000	     98.51183977	     -0.93411027	      4.25402536	    119.77094901	      2.09039741	     -9.56709737	    -11.00421827	      0.00000000	      0.00000000	     47.85104778	     -9.37035925	     -1.27767357	     29.79062732	      0.51994453	     -3.71930352	     -5.83843362	      0.00000000	      0.00000000	    -44.35027421	      6.69821089	      6.79185741	     89.45852207	     -5.82943707	     41.35853629	     35.46505819	     38.44056802	      0.00000000	      0.00000000	     89.24194559	    -13.98761946	     52.66443985	     33.51762560	     35.55581395	      0.00000000	      0.00000000
      7.53000000	    -21.83274511	     -4.82117336	     -3.00091814	      0.07528151	      0.98853140	     -0.22869434	      0.00000000	      0.50000000	      0.00000000	      0.25000000	    100.26262912	     -0.74955439	      4.02448107	    119.83385353	      2.09149530	    -11.12366608	    -10.55281580	      0.00000000	      0.00000000	     46.59918164	     -9.86300503	     -1.73713666	     28.98851176	      0.50594498	     -4.02825301	     -4.97697008	      0.00000000	      0.00000000	    -44.53963593	      6.92042694	      7.22628016	     89.47989804	     -5.70415043	     41.38751722	     35.70488734	     38.44774275	      0.00000000	      0.00000000	     89.21549127	    -14.19769680	     52.76934675	     33.43864386	     35.56241541	      0.00000000	      0.00000000
      7.53500000	    -21.71152534	     -4.79364967	     -3.49139535	      0.07575815	      0.98982386	     -0.22849014	      0.00000000	      0.50000000	      0.00000000	      0.25000000	    101.82586596	     -0.41839204	      3.93385358	    119.78907404	      2.09071375	    -12.88484675	    -10.47366279	      0.00000000	      0.00000000	     45.25028889	    -10.35076244	     -2.66771462	     28.43173925	      0.49622746	     -4.03982516	     -3.91624097	      0.00000000	      0.00000000	    -44.85954581	      6.83041322	      7.52490003	     89.48655484	     -5.59993685	     41.39249915	     36.07833465	     38.45867360	      0.00000000	      0.00000000	     89.19878690	    -14.43257747	     52.93602417	     33.35742053	     35.58157667	      0.00000000	      0.00000000
      7.54000000	    -21.57655284	     -4.78409977	     -3.91811687	      0.07612838	      0.99139345	     -0.22809682	      0.00000000	      0.50000000	      0.00000000	      0.25000000	    103.22153574	     -0.09499262	      3.76312208	    119.57128994	      2.08691270	    -14.55637100	    -10.74570875	      0.00000000	      0.00000000	     44.03135133	    -10.84963530	     -3.67664183	     28.15016091	      0.49131299	     -3.74747075	     -2.57770517	      0.00000000	      0.00000000	    -45.25985176	      6.72935292	      7.82186782	     89.48126604	     -5.52892033	     41.33960074	     36.58577608	     38.46149343	      0.00000000	      0.00000000	     89.18856070	    -14.70061361	     53.13182716	     33.33734725	     35.62392068	      0.00000000	      0.00000000
      7.54500000	    -21.49862023	     -4.81756393	     -4.36122692	      0.07642833	      0.99285820	     -0.22744910	      0.00000000	      0.50000000	      0.00000000	      0.25000000	    104.59510556	      0.23387706	      3.48149877	    119.29442067	      2.08208042	    -16.10582910	    -11.02588883	      0.00000000	      0.00000000	     43.01502065	    -11.44456776	     -4.73108883	     28.16764143	      0.49161809	     -3.20413201	     -1.08171280	      0.00000000	      0.00000000	    -45.62712568	      6.63046653	      8.16734457	     89.49075950	     -5.51491259	     41.21663007	     37.25465595	     38.43092825	      0.00000000	      0.00000000	     89.18390635	    -15.00492460	     53.33408300	     33.48694658	     35.71619507	      0.00000000	      0.00000000
      7.55000000	    -21.55741094	     -4.91635307	     -4.63937438	      0.07649805	      0.99437249	     -0.22730776	      0.00000000	      0.50000000	      0.00000000	      0.25000000	    105.90849754	      0.37321596	      3.25942954	    118.85819836	      2.07446690	    -17.21171071	    -10.42197640	      0.00000000	      0.00000000	     42.20236630	    -11.81240889	     -5.17971576	     28.14175676	      0.49116631	     -3.12955504	     -0.58368291	      0.00000000	      0.00000000	    -45.83985434	      6.72667075	      8.42481860	     89.50212757	     -5.38904714	     41.18544294	     37.52698839	     38.42624361	      0.00000000	      0.00000000	     89.16371643	    -15.17990221	     53.33970772	     33.49616938	     35.73451668	      0.00000000	      0.00000000
      7.55500000	    -21.52545736	     -4.84538567	     -4.62251267	      0.07649326	      0.99589135	     -0.22737698	      0.00000000	      0.50000000	      0.00000000	      0.25000000	    106.98421728	      0.27332977	      3.26365586	    118.46626292	      2.06762634	    -17.54333268	    -10.19466948	      0.00000000	      0.00000000	     41.50205977	    -11.83084676	     -5.51418347	     28.37527978	      0.49524206	     -3.05135101	     -0.37112627	      0.00000000	      0.00000000	    -46.08644386	      6.83817072	      8.50076657	     89.53138321	     -5.32926636	     41.16334816	     37.65568141	     38.43043596	      0.00000000	      0.00000000	     89.17666930	    -15.25633896	     53.32505667	     33.48617151	     35.73608728	      0.00000000	      0.00000000
      7.56000000	    -21.61920224	     -4.84139333	     -5.13596153	      0.07647034	      0.99728462	     -0.22619360	      0.00000000	      0.50000000	      0.00000000	      0.25000000	    107.99524507	      0.95551227	      3.11925655	    117.82535738	      2.05644043	    -18.32110665	     -9.59447648	      0.00000000	      0.00000000	     41.05751714	    -12.51089195	     -6.67392787	     29.12113792	      0.50825974	     -2.23132073	      1.29623428	      0.00000000	      0.00000000	    -46.29741756	      6.62044176	      8.70925190	     89.51222241	     -5.18426890	     40.83269284	     38.54223423	     38.35355293	      0.00000000	      0.00000000	     89.15383880	    -15.74367387	     53.14838080	     33.83165611	     35.84753427	      0.00000000	      0.00000000
      7.56500000	    -21.75032823	     -4.85153090	     -5.33813212	      0.07611423	      0.99893820	     -0.22581888	      0.00000000	      0.50000000	      0.00000000	      0.25000000	    108.64266169	      1.25055029	      3.01344386	    117.00344708	      2.04209539	    -18.20933879	     -9.20002427	      0.00000000	      0.00000000	     40.81094807	    -12.79262765	     -7.13768898	     29.84685568	      0.52092590	     -2.21255191	      1.25477087	      0.00000000	      0.00000000	    -46.44316637	      6.59805466	      8.77925159	     89.53094611	     -4.98341253	     40.74126148	     38.84936893	     38.33505078	      0.00000000	      0.00000000	     89.15764852	    -15.92413752	     53.03086876	     33.89039352	     35.86580797	      0.00000000	      0.00000000
      7.57000000	    -22.00109460	     -4.95529466	     -5.46203581	      0.07557653	      1.00053598	     -0.22525408	      0.00000000	      0.50000000	      0.00000000	      0.25000000	    108.96610645	      1.56115221	      2.80738692	    116.00683856	      2.02470129	    -17.27438633	     -8.85450347	      0.00000000	      0.00000000	     40.91447544	    -13.15693212	     -7.36801237	     30.90023521	      0.53931084	     -1.90837851	      1.64946686	      0.00000000	      0.00000000	    -46.51885907	      6.71099779	      8.90828825	     89.53701629	     -4.79348908	     40.31370991	     39.37498759	     38.19738453	      0.00000000	      0.00000000	     89.14525376	    -16.22392074	     52.63932431	     34.27943464	     35.95506074	      0.00000000	      0.00000000
